<svg width="800" height="800" viewBox="0 0 800 800" fill="none" xmlns="http://www.w3.org/2000/svg">
<g clip-path="url(#clip0_3153_320)">
<path d="M217.478 356.903C172.166 356.903 135.304 320.04 135.304 274.729C135.304 229.417 172.169 192.555 217.478 192.555C262.789 192.555 299.652 229.42 299.652 274.729C299.652 320.04 262.789 356.903 217.478 356.903ZM217.478 225.366C190.26 225.366 168.117 247.509 168.117 274.726C168.117 301.944 190.26 324.087 217.478 324.087C244.695 324.087 266.838 301.944 266.838 274.726C266.838 247.509 244.695 225.366 217.478 225.366Z" fill="white"/>
<path d="M783.593 586.624H762.146V116.252C762.146 107.189 754.8 99.8452 745.739 99.8452H54.2584C45.1975 99.8452 37.8516 107.189 37.8516 116.252V586.624H16.4068C7.34368 586.624 0 593.97 0 603.031V649.849C0 658.912 7.34368 666.256 16.4068 666.256H98.0536V683.748C98.0536 692.811 105.397 700.155 114.46 700.155H315.291C324.354 700.155 331.697 692.811 331.697 683.748V666.256H783.593C792.656 666.256 800 658.912 800 649.849V603.031C800 593.968 792.656 586.624 783.593 586.624ZM98.0536 633.442H32.8136V619.438H98.0536V633.442ZM98.0536 412.95V586.624H70.6652V132.659H729.335V586.624H331.697V502.348L395.126 558.369C400.623 562.666 405.39 562.51 406.311 562.478C410.763 562.399 414.991 560.515 418.023 557.256L549.05 416.459C556.551 408.481 560.413 398.099 559.927 387.225C559.529 378.326 556.201 370.011 550.512 363.231L646.682 260.03C652.857 253.402 652.492 243.02 645.864 236.84C639.235 230.664 628.853 231.034 622.673 237.658L526.608 340.747C519.805 335.733 511.542 333.034 502.877 333.226C492.022 333.404 481.52 338.061 474.102 345.96L401.969 423.26C401.969 423.26 346.772 371.597 346.144 371.159C336.821 363.837 325.222 359.819 313.339 359.819H151.179C121.887 359.821 98.0536 383.654 98.0536 412.95ZM524.151 383.035C524.261 383.138 524.372 383.239 524.482 383.339C526.569 385.197 527.083 387.273 527.146 388.688C527.234 390.637 526.523 392.516 525.059 394.072L512.266 407.884L484.937 382.265L497.984 368.466C499.928 366.397 502.223 366.053 503.415 366.036C504.408 366.04 506.349 366.215 507.85 367.714C507.965 367.827 508.081 367.941 508.202 368.05L524.151 383.035ZM326.152 453.668C321.317 449.393 314.426 448.358 308.546 451.008C302.666 453.661 298.884 459.513 298.884 465.964V667.341H130.867V412.95C130.867 401.748 139.978 392.634 151.179 392.634H313.341C319.37 392.634 323.689 395.152 326.25 397.263C326.257 397.27 326.263 397.274 326.27 397.281L391.567 458.487C394.752 461.475 398.996 463.092 403.364 462.912C407.729 462.761 411.852 460.871 414.819 457.671L462.51 406.219L489.936 431.928L404.891 523.215L326.152 453.668ZM767.186 633.442H331.697V619.438H767.186V633.442Z" fill="white"/>
</g>
<defs>
<clipPath id="clip0_3153_320">
<rect width="800" height="800" fill="white"/>
</clipPath>
</defs>
</svg>
