<svg width="800" height="800" viewBox="0 0 800 800" fill="none" xmlns="http://www.w3.org/2000/svg">
<path d="M332.118 554.059H288.244V510.014C288.225 492.498 281.285 475.705 268.947 463.319C256.609 450.933 239.881 443.966 222.433 443.947H134.685C117.237 443.966 100.509 450.933 88.1707 463.319C75.8329 475.705 68.8932 492.498 68.874 510.014V554.059H25V510.014C25.0343 480.821 36.6013 452.834 57.1638 432.191C77.7263 411.549 105.605 399.937 134.685 399.902H222.433C251.513 399.937 279.392 411.549 299.954 432.191C320.517 452.834 332.084 480.821 332.118 510.014V554.059Z" fill="white"/>
<path d="M178.559 180.976C191.535 180.976 204.219 184.845 215.008 192.093C225.797 199.342 234.205 209.644 239.171 221.697C244.137 233.751 245.436 247.014 242.904 259.81C240.373 272.606 234.125 284.36 224.949 293.585C215.774 302.81 204.084 309.093 191.358 311.638C178.632 314.183 165.44 312.877 153.453 307.884C141.465 302.892 131.218 294.437 124.009 283.589C116.801 272.741 112.953 259.988 112.953 246.941C112.953 229.446 119.865 212.668 132.168 200.297C144.472 187.926 161.159 180.976 178.559 180.976ZM178.559 137C156.933 137 135.792 143.448 117.811 155.528C99.8294 167.609 85.8146 184.779 77.5387 204.868C69.2627 224.957 67.0973 247.063 71.3164 268.389C75.5354 289.716 85.9494 309.306 101.241 324.681C116.533 340.057 136.016 350.527 157.227 354.77C178.438 359.012 200.423 356.834 220.403 348.513C240.383 340.192 257.46 326.101 269.475 308.021C281.49 289.941 287.902 268.685 287.902 246.941C287.902 217.783 276.382 189.819 255.876 169.201C235.371 148.583 207.559 137 178.559 137Z" fill="white"/>
<path d="M774.322 553.059H730.448V509.014C730.429 491.498 723.489 474.705 711.151 462.319C698.813 449.933 682.085 442.966 664.637 442.947H576.889C559.441 442.966 542.713 449.933 530.375 462.319C518.037 474.705 511.097 491.498 511.078 509.014V553.059H467.204V509.014C467.238 479.821 478.805 451.834 499.368 431.191C519.93 410.549 547.809 398.937 576.889 398.902H664.637C693.717 398.937 721.596 410.549 742.158 431.191C762.721 451.834 774.288 479.821 774.322 509.014V553.059Z" fill="white"/>
<path d="M620.763 179.976C633.739 179.976 646.423 183.845 657.212 191.093C668.001 198.342 676.41 208.644 681.375 220.697C686.341 232.751 687.64 246.014 685.109 258.81C682.577 271.606 676.329 283.36 667.154 292.585C657.978 301.81 646.288 308.093 633.562 310.638C620.836 313.183 607.645 311.877 595.657 306.884C583.669 301.892 573.422 293.437 566.214 282.589C559.005 271.741 555.157 258.988 555.157 245.941C555.157 228.446 562.069 211.668 574.372 199.297C586.676 186.926 603.363 179.976 620.763 179.976ZM620.763 136C599.137 136 577.996 142.448 560.015 154.528C542.034 166.609 528.019 183.779 519.743 203.868C511.467 223.957 509.301 246.063 513.52 267.389C517.74 288.716 528.153 308.306 543.445 323.681C558.737 339.057 578.221 349.527 599.431 353.77C620.642 358.012 642.627 355.834 662.607 347.513C682.587 339.192 699.664 325.101 711.679 307.021C723.694 288.941 730.107 267.685 730.107 245.941C730.107 216.783 718.586 188.819 698.081 168.201C677.575 147.583 649.763 136 620.763 136Z" fill="white"/>
<path d="M554.66 664H510.786V619.955C510.767 602.439 503.827 585.646 491.489 573.26C479.151 560.874 462.423 553.907 444.975 553.888H357.227C339.779 553.907 323.051 560.874 310.713 573.26C298.375 585.646 291.435 602.439 291.416 619.955V664H247.542V619.955C247.576 590.762 259.143 562.775 279.706 542.132C300.268 521.49 328.147 509.878 357.227 509.844H444.975C474.055 509.878 501.934 521.49 522.496 542.132C543.059 562.775 554.626 590.762 554.66 619.955V664Z" fill="white"/>
<path d="M401.101 290.917C414.077 290.917 426.761 294.786 437.55 302.034C448.339 309.283 456.747 319.585 461.713 331.638C466.679 343.692 467.978 356.955 465.446 369.751C462.915 382.547 456.667 394.301 447.491 403.526C438.316 412.751 426.626 419.034 413.9 421.579C401.174 424.124 387.982 422.818 375.995 417.825C364.007 412.833 353.76 404.378 346.551 393.53C339.343 382.682 335.495 369.929 335.495 356.882C335.495 339.387 342.407 322.609 354.71 310.238C367.014 297.867 383.701 290.917 401.101 290.917ZM401.101 246.941C379.475 246.941 358.334 253.389 340.353 265.469C322.371 277.55 308.357 294.72 300.081 314.809C291.805 334.899 289.639 357.004 293.858 378.33C298.077 399.657 308.491 419.247 323.783 434.622C339.075 449.998 358.558 460.468 379.769 464.711C400.98 468.953 422.965 466.775 442.945 458.454C462.925 450.133 480.002 436.042 492.017 417.962C504.032 399.882 510.444 378.626 510.444 356.882C510.444 327.724 498.924 299.76 478.418 279.142C457.913 258.524 430.101 246.941 401.101 246.941Z" fill="white"/>
</svg>
